# xmcd
#
# Track frame offsets:
#	150
#	15082
#	31402
#	45770
#	62957
#	88522
#	106520
#	126145
#	143510
#	161655
#	184045
#	201725
#
# Disc length: 3050 seconds
#
# Revision: 11
# Processed by: cddbd v1.5.2PL0 Copyright (c) Steve Scherf et al.
# Submitted via: audiograbber 1.83.01
#
DISCID=900be80c
DTITLE=Wolfgang Ambros - Nach mir die Sintflut - Ambros singt Waits
DYEAR=2000
DGENRE=AustroPop
TTITLE0=Samstag Nacht ((Looking For) The Heart Of Saturday Night)
TTITLE1=Durt bin i daham (In The Neighbourhood)
TTITLE2=Heimatserenade (San Diego Serenade)
TTITLE3=Romeo verliert Bluat (Romeo Is Bleeding)
TTITLE4=Es is vorbei (Ruby's Arms)
TTITLE5=Nach mir die Sintflut (Shiver Me Timbers)
TTITLE6=Die Sunn geht boid auf (OL' '55)
TTITLE7=Gross in Kagran (Big In Japan)
TTITLE8=Martha (Martha)
TTITLE9=Weihnachtsgrüsse von aner Hur aus Floridsdorf (Christmas Card from A Ho
TTITLE9=oker In Minneapolis)
TTITLE10=Verliab di ned (I Hope I Don't Fall In Love With You)
TTITLE11=Tom Traubert's Blues (Tom Traubert's Blues)
EXTD=YEAR: 2000
EXTT0=
EXTT1=
EXTT2=
EXTT3=
EXTT4=
EXTT5=
EXTT6=
EXTT7=
EXTT8=
EXTT9=
EXTT10=
EXTT11=
PLAYORDER=
